<mxfile host="app.diagrams.net" modified="2023-10-24T18:57:07.256Z" agent="Mozilla/5.0 (Windows NT 10.0; Win64; x64) AppleWebKit/537.36 (KHTML, like Gecko) Chrome/118.0.0.0 Safari/537.36" version="22.0.7" etag="AmHDa0esLElBh7nMGHG0" type="github">
  <diagram name="Page-1" id="J42PrEW9Fu8VLbd0H20A">
    <mxGraphModel>
      <root>
        <mxCell id="0" />
        <mxCell id="1" parent="0" />
      </root>
    </mxGraphModel>
  </diagram>
</mxfile>
